<?xml version="1.0" standalone="no"?>
<!DOCTYPE svg PUBLIC "-//W3C//DTD SVG 20010904//EN"
 "http://www.w3.org/TR/2001/REC-SVG-20010904/DTD/svg10.dtd">
<svg version="1.0" xmlns="http://www.w3.org/2000/svg"
 width="500.000000pt" height="500.000000pt" viewBox="0 0 500.000000 500.000000"
 preserveAspectRatio="xMidYMid meet">

<g transform="translate(0.000000,500.000000) scale(0.100000,-0.100000)"
fill="#000000" stroke="none">
<path d="M740 3163 c69 -11 145 -39 243 -89 59 -30 134 -61 167 -70 57 -14 62
-14 192 17 214 50 294 36 334 -58 18 -42 18 -132 -1 -211 -31 -129 -169 -439
-261 -587 l-44 -70 46 50 c230 249 404 585 404 779 0 65 -33 133 -78 163 -43
29 -133 47 -193 39 -26 -4 -107 -27 -181 -52 -171 -59 -201 -58 -355 16 -124
60 -189 80 -253 79 -25 -1 -34 -4 -20 -6z"/>
<path d="M624 3105 c-46 -27 -86 -81 -104 -139 -17 -52 -8 -283 15 -391 24
-119 129 -425 184 -541 83 -174 134 -229 177 -193 9 7 45 72 81 143 118 237
217 346 369 410 49 20 108 40 131 43 24 3 43 10 43 15 0 23 -224 -37 -313 -84
-87 -47 -220 -191 -281 -305 -26 -50 -55 -94 -63 -98 -44 -16 -116 90 -167
246 -111 340 -121 625 -24 735 70 80 174 99 308 56 48 -16 60 -17 45 -6 -43
32 -149 87 -213 110 -87 31 -136 30 -188 -1z"/>
<path d="M1980 2776 l0 -156 78 0 c42 0 94 5 114 10 68 19 88 81 42 127 -23
23 -24 27 -10 42 9 10 16 34 16 54 0 55 -31 70 -146 75 l-94 4 0 -156z m174
113 c42 -19 41 -74 0 -90 -14 -5 -50 -9 -80 -9 l-54 0 0 55 0 55 55 0 c30 0
65 -5 79 -11z m31 -145 c23 -23 15 -66 -15 -81 -14 -7 -53 -13 -87 -13 l-63 0
0 55 0 55 74 0 c56 0 79 -4 91 -16z"/>
<path d="M2372 2909 c-109 -54 -108 -215 1 -268 115 -55 237 14 237 134 0 121
-124 190 -238 134z m134 -25 c87 -41 86 -177 -2 -219 -49 -23 -98 -13 -141 30
-27 27 -33 40 -33 78 0 52 27 92 74 113 41 18 61 17 102 -2z"/>
<path d="M2755 2916 c-17 -7 -43 -28 -58 -45 -94 -112 10 -272 161 -247 131
21 169 198 60 279 -34 26 -121 33 -163 13z m142 -41 c59 -39 66 -134 14 -186
-81 -81 -219 -15 -208 99 10 93 113 139 194 87z"/>
<path d="M3060 2775 c0 -148 1 -155 20 -155 17 0 20 7 20 42 0 32 6 49 28 71
l27 28 65 -71 c44 -48 72 -71 83 -69 14 3 5 20 -48 83 -36 43 -65 81 -65 85 0
3 27 37 61 74 92 101 44 86 -63 -20 l-88 -88 0 88 c0 80 -2 87 -20 87 -19 0
-20 -7 -20 -155z"/>
<path d="M3380 2775 c0 -148 1 -155 20 -155 19 0 20 7 20 155 0 148 -1 155
-20 155 -19 0 -20 -7 -20 -155z"/>
<path d="M3520 2775 c0 -148 1 -155 20 -155 18 0 20 8 22 115 l3 115 90 -115
c52 -66 97 -114 108 -115 15 0 17 14 17 155 0 148 -1 155 -20 155 -18 0 -20
-8 -22 -117 l-3 -116 -94 116 c-52 64 -100 117 -108 117 -10 0 -13 -32 -13
-155z"/>
<path d="M3932 2909 c-110 -56 -108 -215 3 -269 53 -26 127 -24 169 4 23 14
26 24 26 71 0 48 -2 55 -20 55 -17 0 -20 -7 -20 -49 0 -48 -1 -50 -36 -61 -81
-27 -164 32 -164 117 0 38 5 50 33 78 45 45 94 54 147 27 31 -15 42 -17 50 -7
16 19 -36 48 -95 52 -37 3 -61 -2 -93 -18z"/>
<path d="M1983 2523 c32 -2 81 -2 110 0 29 2 3 3 -58 3 -60 0 -84 -1 -52 -3z"/>
<path d="M3083 2513 c59 -2 155 -2 215 0 59 1 10 3 -108 3 -118 0 -167 -2
-107 -3z"/>
<path d="M4288 2503 c28 -2 76 -2 105 0 28 2 5 3 -53 3 -58 0 -81 -1 -52 -3z"/>
<path d="M2027 2450 c12 -5 26 -17 32 -27 6 -10 11 -13 11 -7 0 15 -34 44 -51
43 -8 0 -4 -4 8 -9z"/>
<path d="M2242 2395 l1 -70 6 59 6 60 44 -57 c24 -31 45 -57 47 -57 2 0 3 30
2 68 -2 67 -2 67 -6 12 l-3 -55 -49 55 -49 55 1 -70z"/>
<path d="M2421 2393 c2 -70 6 -63 11 20 2 26 0 47 -4 47 -5 0 -7 -30 -7 -67z"/>
<path d="M2536 2444 c-9 -24 -2 -26 12 -4 7 11 8 20 3 20 -5 0 -12 -7 -15 -16z"/>
<path d="M2817 2442 c-10 -10 -17 -23 -17 -28 0 -5 5 -1 11 9 6 10 20 22 32
27 15 6 17 9 6 9 -9 1 -23 -7 -32 -17z"/>
<path d="M3063 2395 c0 -38 2 -53 4 -32 2 20 2 52 0 70 -2 17 -4 1 -4 -38z"/>
<path d="M3122 2395 l2 -70 3 58 4 58 45 -57 c24 -32 44 -53 44 -47 0 6 -13
26 -29 45 -16 18 -39 44 -50 58 l-20 25 1 -70z"/>
<path d="M3273 2395 c0 -38 2 -53 4 -32 2 20 2 52 0 70 -2 17 -4 1 -4 -38z"/>
<path d="M3337 2442 c-50 -55 21 -142 83 -102 10 6 4 8 -21 4 -26 -5 -40 -1
-53 11 -25 26 -17 76 14 92 16 8 19 13 9 13 -9 0 -23 -8 -32 -18z"/>
<path d="M3400 2456 c0 -2 7 -7 16 -10 8 -3 12 -2 9 4 -6 10 -25 14 -25 6z"/>
<path d="M2576 2400 c3 -14 10 -29 15 -34 14 -16 10 6 -7 34 l-15 25 7 -25z"/>
<path d="M2502 2365 c-17 -37 -14 -45 4 -12 9 16 14 31 11 33 -2 2 -9 -7 -15
-21z"/>
<path d="M2048 2358 c-10 -10 -14 -18 -9 -18 10 0 36 29 30 34 -2 1 -12 -6
-21 -16z"/>
<path d="M2800 2372 c0 -16 41 -42 65 -41 14 0 11 3 -10 10 -16 5 -36 16 -42
26 -7 9 -13 12 -13 5z"/>
<path d="M1973 2333 c9 -2 25 -2 35 0 9 3 1 5 -18 5 -19 0 -27 -2 -17 -5z"/>
<path d="M2138 2333 c12 -2 32 -2 45 0 12 2 2 4 -23 4 -25 0 -35 -2 -22 -4z"/>
<path d="M2668 2333 c12 -2 32 -2 45 0 12 2 2 4 -23 4 -25 0 -35 -2 -22 -4z"/>
<path d="M2968 2333 c12 -2 32 -2 45 0 12 2 2 4 -23 4 -25 0 -35 -2 -22 -4z"/>
</g>
</svg>
